<?xml version="1.0" encoding="UTF-8"?>
<svg xmlns="http://www.w3.org/2000/svg" version="1.1" viewBox="0 0 82.4 82.4" xml:space="preserve" height="512" width="512" preserveAspectRatio="xMidYMid meet" role="img" aria-label="AnyConverter logo"><title>AnyConverter logo</title><g id="Layer_3" /><circle cx="41.1" cy="41.1" r="39.5" style="fill: rgb(176, 74, 69); fill-opacity: 1;" /><path d="M30.2,23.2c0,0,0.6-13.8-17.3-9.8c-7,7.1-11.3,16.9-11.3,27.6c0,21.8,17.7,39.5,39.5,39.5c0.4,0,0.8,0,1.2,0    l3.7-8.5L26.8,47.7L30.2,23.2z" style="fill: rgb(176, 74, 69); fill-opacity: 1;" /><path d="M52,23.2c0,0-0.6-13.8,17.3-9.8c7,7.1,11.3,16.9,11.3,27.6c0,21.8-17.7,39.5-39.5,39.5c-0.4,0-0.8,0-1.2,0    l-3.7-8.5l19.2-24.4L52,23.2z" style="fill: rgb(176, 74, 69); fill-opacity: 1;" /><path d="M50.8,39.8l-8.6,4.5c-0.7,0.3-1.4,0.3-2.1,0l-8.6-4.5c-0.8-0.4-1.2-1.2-1.2-2l0-14.5c0-0.9-1-1.5-1.8-1    c-6.1,4.1-10.1,11.2-10,19.1c0.2,11.7,9.5,21.6,21.2,22.3c13.2,0.8,24.1-9.6,24.1-22.6c0-7.8-4-14.7-10-18.8    c-0.8-0.5-1.8,0-1.8,0.9v14.5C52,38.6,51.5,39.4,50.8,39.8z" style="fill: rgb(255, 255, 255);" /><path d="M53.8,22.3c-0.7-0.5-1.8,0.1-1.8,1v14.5c0,0.8-0.5,1.6-1.2,2l-8.6,4.5c-0.7,0.3-1.4,0.3-2.1,0l-8.6-4.5    c-0.8-0.4-1.2-1.2-1.2-2V23.2c0-0.9-1-1.4-1.8-0.9c-6,4.1-10,11-10,18.8c0,9.3,5.6,17.3,13.6,20.8v17.8c2.9,0.7,5.9,1.1,9.1,1.1    s6.2-0.4,9.1-1.1V61.9c7.9-3.5,13.5-11.4,13.6-20.4C63.9,33.4,59.9,26.4,53.8,22.3z" style="fill: rgb(255, 255, 255);" /></svg>