<svg xmlns="http://www.w3.org/2000/svg" viewBox="0 0 40 40">
  <!-- Hand giving coin -->
  <!-- Palm / hand outline -->
  <path d="M8,26 Q8,22 12,21 L18,21 L18,15 Q18,13 20,13 Q22,13 22,15 L22,21 L24,21 Q26,21 26,23 L26,27 Q26,32 20,32 L14,32 Q10,32 8,28 Z" fill="#B04A45" opacity="0.25"/>
  <path d="M8,26 Q8,22 12,21 L18,21 L18,15 Q18,13 20,13 Q22,13 22,15 L22,21 L24,21 Q26,21 26,23 L26,27 Q26,32 20,32 L14,32 Q10,32 8,28 Z" fill="none" stroke="#B04A45" stroke-width="1.8" stroke-linejoin="round"/>
  <!-- Coin / dollar circle above -->
  <circle cx="30" cy="13" r="6" fill="#B04A45" opacity="0.9"/>
  <text x="30" y="17" font-family="Georgia,serif" font-size="9" font-weight="700" fill="#EA580C" text-anchor="middle">$</text>
</svg>
