<svg xmlns="http://www.w3.org/2000/svg" viewBox="0 0 40 40">
  <defs>
    <linearGradient id="g" x1="0%" y1="0%" x2="100%" y2="100%">
      <stop offset="0%" stop-color="#5C6BC0"/>
      <stop offset="100%" stop-color="#7C3AED"/>
    </linearGradient>
  </defs>
  <rect width="40" height="40" rx="10" fill="url(#g)"/>
  <!-- Keyboard body -->
  <rect x="6" y="13" width="28" height="16" rx="3" fill="white" opacity="0.18"/>
  <rect x="6" y="13" width="28" height="16" rx="3" fill="none" stroke="white" stroke-width="1.8"/>
  <!-- Row 1: 5 small keys -->
  <rect x="9" y="16" width="4" height="3.5" rx="1" fill="white" opacity="0.8"/>
  <rect x="14.5" y="16" width="4" height="3.5" rx="1" fill="white" opacity="0.8"/>
  <rect x="20" y="16" width="4" height="3.5" rx="1" fill="white" opacity="0.8"/>
  <rect x="25.5" y="16" width="5.5" height="3.5" rx="1" fill="white" opacity="0.6"/>
  <!-- Row 2: 4 keys -->
  <rect x="9" y="21" width="5" height="3.5" rx="1" fill="white" opacity="0.8"/>
  <rect x="15.5" y="21" width="4" height="3.5" rx="1" fill="white" opacity="0.8"/>
  <rect x="21" y="21" width="4" height="3.5" rx="1" fill="white" opacity="0.8"/>
  <rect x="26.5" y="21" width="4.5" height="3.5" rx="1" fill="white" opacity="0.6"/>
  <!-- Row 3: spacebar -->
  <rect x="11" y="26" width="18" height="3" rx="1.5" fill="white" opacity="0.7"/>
</svg>
