<svg width="40" height="40" viewBox="0 0 40 40" fill="none" xmlns="http://www.w3.org/2000/svg">
  <defs>
    <linearGradient id="g" x1="0" y1="0" x2="40" y2="40" gradientUnits="userSpaceOnUse">
      <stop offset="0%" stop-color="#818CF8"/>
      <stop offset="100%" stop-color="#3730A3"/>
    </linearGradient>
  </defs>
  <rect width="40" height="40" rx="10" fill="url(#g)"/>
  <!-- { brace left -->
  <path d="M10 20 Q7 20 7 18 L7 14 Q7 11 10 11" stroke="white" stroke-width="2" stroke-linecap="round" fill="none"/>
  <path d="M10 20 Q7 20 7 22 L7 26 Q7 29 10 29" stroke="white" stroke-width="2" stroke-linecap="round" fill="none"/>
  <!-- } brace right -->
  <path d="M18 20 Q21 20 21 18 L21 14 Q21 11 18 11" stroke="white" stroke-width="2" stroke-linecap="round" fill="none"/>
  <path d="M18 20 Q21 20 21 22 L21 26 Q21 29 18 29" stroke="white" stroke-width="2" stroke-linecap="round" fill="none"/>
  <!-- Arrow pointing right -->
  <line x1="23" y1="20" x2="30" y2="20" stroke="white" stroke-width="2" stroke-linecap="round"/>
  <polyline points="27,17 30,20 27,23" stroke="white" stroke-width="2" stroke-linecap="round" stroke-linejoin="round" fill="none"/>
  <!-- YAML colon-key lines (right side) -->
  <line x1="33" y1="13" x2="38" y2="13" stroke="white" stroke-width="1.8" stroke-linecap="round" opacity="0.9"/>
  <line x1="33" y1="18" x2="37" y2="18" stroke="white" stroke-width="1.8" stroke-linecap="round" opacity="0.9"/>
  <line x1="33" y1="23" x2="38" y2="23" stroke="white" stroke-width="1.8" stroke-linecap="round" opacity="0.9"/>
  <line x1="33" y1="28" x2="36" y2="28" stroke="white" stroke-width="1.8" stroke-linecap="round" opacity="0.9"/>
</svg>
