<svg xmlns="http://www.w3.org/2000/svg" viewBox="0 0 40 40">
  <defs>
    <linearGradient id="g" x1="0%" y1="0%" x2="100%" y2="100%">
      <stop offset="0%" stop-color="#991B1B"/>
      <stop offset="100%" stop-color="#F87171"/>
    </linearGradient>
  </defs>
  <rect width="40" height="40" rx="10" fill="url(#g)"/>
  <!-- Blood drop shape -->
  <path d="M20,33 C13,33 8,27 8,22 C8,16 14,9 20,6 C26,9 32,16 32,22 C32,27 27,33 20,33 Z" fill="white" opacity="0.25"/>
  <path d="M20,33 C13,33 8,27 8,22 C8,16 14,9 20,6 C26,9 32,16 32,22 C32,27 27,33 20,33 Z" fill="none" stroke="white" stroke-width="2"/>
  <!-- + cross inside -->
  <line x1="20" y1="15" x2="20" y2="29" stroke="white" stroke-width="2.4" stroke-linecap="round"/>
  <line x1="13" y1="22" x2="27" y2="22" stroke="white" stroke-width="2.4" stroke-linecap="round"/>
  <!-- Shine highlight -->
  <path d="M13,16 Q14,12 17,11" fill="none" stroke="white" stroke-width="1.5" stroke-linecap="round" opacity="0.5"/>
</svg>
