<svg xmlns="http://www.w3.org/2000/svg" viewBox="0 0 40 40">
  <defs>
    <linearGradient id="g" x1="0%" y1="0%" x2="100%" y2="100%">
      <stop offset="0%" stop-color="#92400E"/>
      <stop offset="100%" stop-color="#FCD34D"/>
    </linearGradient>
  </defs>
  <rect width="40" height="40" rx="10" fill="url(#g)"/>
  <path d="M8,6 L20,6 L25,11 L25,32 L8,32 Z" fill="white" opacity="0.2"/>
  <path d="M8,6 L20,6 L25,11 L25,32 L8,32 Z" fill="none" stroke="white" stroke-width="1.8" stroke-linejoin="round"/>
  <path d="M20,6 L20,11 L25,11" fill="none" stroke="white" stroke-width="1.5" stroke-linejoin="round"/>
  <!-- Highlight bar on text -->
  <rect x="10" y="17" width="13" height="3" rx="1" fill="white" opacity="0.45"/>
  <line x1="10" y1="23" x2="23" y2="23" stroke="white" stroke-width="1.4" stroke-linecap="round" opacity="0.6"/>
  <!-- Pencil (floating top-right) -->
  <path d="M26,16 L31,11 L34,14 L29,19 Z" fill="white" opacity="0.9"/>
  <path d="M31,11 L33,9 L35,11 L34,14 Z" fill="white"/>
  <path d="M26,16 L25,19 L28,18 Z" fill="white" opacity="0.7"/>
</svg>
