<svg xmlns="http://www.w3.org/2000/svg" viewBox="0 0 40 40">
  <defs>
    <linearGradient id="g" x1="0%" y1="0%" x2="100%" y2="100%">
      <stop offset="0%" stop-color="#4F46E5"/>
      <stop offset="100%" stop-color="#A78BFA"/>
    </linearGradient>
  </defs>
  <rect width="40" height="40" rx="10" fill="url(#g)"/>
  <!-- Source doc (center) -->
  <path d="M14,6 L23,6 L26,9 L26,22 L14,22 Z" fill="white" opacity="0.25"/>
  <path d="M14,6 L23,6 L26,9 L26,22 L14,22 Z" fill="none" stroke="white" stroke-width="1.8" stroke-linejoin="round"/>
  <path d="M23,6 L23,9 L26,9" fill="none" stroke="white" stroke-width="1.5" stroke-linejoin="round"/>
  <text x="20" y="18" font-family="system-ui,sans-serif" font-size="5.5" font-weight="800" fill="white" text-anchor="middle">PDF</text>
  <!-- Split arrows going out -->
  <line x1="15" y1="26" x2="9" y2="30" stroke="white" stroke-width="1.8" stroke-linecap="round"/>
  <line x1="25" y1="26" x2="31" y2="30" stroke="white" stroke-width="1.8" stroke-linecap="round"/>
  <!-- Two output docs -->
  <path d="M5,30 L12,30 L14,32 L14,38 L5,38 Z" fill="white" opacity="0.7"/>
  <path d="M26,30 L33,30 L35,32 L35,38 L26,38 Z" fill="white" opacity="0.7"/>
  <!-- Scissors -->
  <circle cx="20" cy="25" r="1.8" fill="none" stroke="white" stroke-width="1.5"/>
  <line x1="17" y1="22" x2="20" y2="25" stroke="white" stroke-width="1.5" stroke-linecap="round"/>
  <line x1="23" y1="22" x2="20" y2="25" stroke="white" stroke-width="1.5" stroke-linecap="round"/>
</svg>
