<svg xmlns="http://www.w3.org/2000/svg" viewBox="0 0 40 40">
  <defs>
    <linearGradient id="g" x1="0%" y1="0%" x2="100%" y2="100%">
      <stop offset="0%" stop-color="#1D4ED8"/>
      <stop offset="100%" stop-color="#818CF8"/>
    </linearGradient>
  </defs>
  <rect width="40" height="40" rx="10" fill="url(#g)"/>
  <path d="M9,6 L22,6 L27,11 L27,34 L9,34 Z" fill="white" opacity="0.2"/>
  <path d="M9,6 L22,6 L27,11 L27,34 L9,34 Z" fill="none" stroke="white" stroke-width="1.8" stroke-linejoin="round"/>
  <path d="M22,6 L22,11 L27,11" fill="none" stroke="white" stroke-width="1.5" stroke-linejoin="round"/>
  <!-- Form fields -->
  <rect x="12" y="14" width="12" height="3.5" rx="1" fill="none" stroke="white" stroke-width="1.4" opacity="0.8"/>
  <!-- Checkbox checked -->
  <rect x="12" y="21" width="3.5" height="3.5" rx="0.8" fill="none" stroke="white" stroke-width="1.4"/>
  <polyline points="12.8,22.8 14,24 15.5,21.5" fill="none" stroke="white" stroke-width="1.3" stroke-linecap="round" stroke-linejoin="round"/>
  <line x1="17" y1="22.8" x2="24" y2="22.8" stroke="white" stroke-width="1.3" stroke-linecap="round" opacity="0.6"/>
  <!-- Checkbox unchecked -->
  <rect x="12" y="27" width="3.5" height="3.5" rx="0.8" fill="none" stroke="white" stroke-width="1.4" opacity="0.7"/>
  <line x1="17" y1="28.8" x2="22" y2="28.8" stroke="white" stroke-width="1.3" stroke-linecap="round" opacity="0.5"/>
  <!-- Cursor/pencil in field -->
  <line x1="18" y1="16" x2="22" y2="16" stroke="white" stroke-width="1.3" stroke-linecap="round" opacity="0.5"/>
  <line x1="23" y1="15" x2="23" y2="17" stroke="white" stroke-width="1.5" stroke-linecap="round" opacity="0.8"/>
</svg>
