<svg xmlns="http://www.w3.org/2000/svg" viewBox="0 0 40 40">
  <!-- Left column (removed lines - red tint) -->
  <rect x="7" y="9" width="11" height="22" rx="2" fill="#B04A45" opacity="0.15"/>
  <line x1="9" y1="14" x2="16" y2="14" stroke="#B04A45" stroke-width="1.5" stroke-linecap="round" opacity="0.9"/>
  <line x1="9" y1="18" x2="16" y2="18" stroke="#FF6B6B" stroke-width="1.5" stroke-linecap="round"/>
  <line x1="9" y1="22" x2="16" y2="22" stroke="#B04A45" stroke-width="1.5" stroke-linecap="round" opacity="0.9"/>
  <line x1="9" y1="26" x2="14" y2="26" stroke="#FF6B6B" stroke-width="1.5" stroke-linecap="round"/>
  <!-- Divider -->
  <line x1="20" y1="8" x2="20" y2="32" stroke="#B04A45" stroke-width="1.2" stroke-linecap="round" opacity="0.4"/>
  <!-- Right column (added lines - green tint) -->
  <rect x="22" y="9" width="11" height="22" rx="2" fill="#B04A45" opacity="0.15"/>
  <line x1="24" y1="14" x2="31" y2="14" stroke="#B04A45" stroke-width="1.5" stroke-linecap="round" opacity="0.9"/>
  <line x1="24" y1="18" x2="31" y2="18" stroke="#B04A45" stroke-width="2" stroke-linecap="round"/>
  <line x1="24" y1="22" x2="31" y2="22" stroke="#B04A45" stroke-width="1.5" stroke-linecap="round" opacity="0.9"/>
  <line x1="24" y1="26" x2="31" y2="26" stroke="#B04A45" stroke-width="2" stroke-linecap="round"/>
  <!-- + and - badges -->
  <circle cx="12.5" cy="8" r="3.5" fill="#FF6B6B"/>
  <line x1="11" y1="8" x2="14" y2="8" stroke="#B04A45" stroke-width="1.6" stroke-linecap="round"/>
  <circle cx="27.5" cy="8" r="3.5" fill="#B04A45"/>
  <line x1="26" y1="8" x2="29" y2="8" stroke="#16A34A" stroke-width="1.6" stroke-linecap="round"/>
  <line x1="27.5" y1="6.5" x2="27.5" y2="9.5" stroke="#16A34A" stroke-width="1.6" stroke-linecap="round"/>
</svg>
