<svg xmlns="http://www.w3.org/2000/svg" viewBox="0 0 40 40">
  <!-- Pixel/block letter "A" made from squares -->
  <!-- Column 1 of A -->
  <rect x="9" y="14" width="4" height="4" rx="0.5" fill="#B04A45" opacity="0.9"/>
  <rect x="9" y="19" width="4" height="4" rx="0.5" fill="#B04A45" opacity="0.9"/>
  <rect x="9" y="24" width="4" height="4" rx="0.5" fill="#B04A45" opacity="0.9"/>
  <!-- Top of A -->
  <rect x="14" y="9" width="4" height="4" rx="0.5" fill="#B04A45" opacity="0.9"/>
  <rect x="14" y="19" width="4" height="4" rx="0.5" fill="#B04A45" opacity="0.6"/>
  <!-- Column 3 of A -->
  <rect x="19" y="14" width="4" height="4" rx="0.5" fill="#B04A45" opacity="0.9"/>
  <rect x="19" y="19" width="4" height="4" rx="0.5" fill="#B04A45" opacity="0.9"/>
  <rect x="19" y="24" width="4" height="4" rx="0.5" fill="#B04A45" opacity="0.9"/>
  <!-- Faded cursor block -->
  <rect x="26" y="9" width="4" height="4" rx="0.5" fill="#B04A45" opacity="0.35"/>
  <rect x="26" y="14" width="4" height="4" rx="0.5" fill="#B04A45" opacity="0.25"/>
  <rect x="26" y="19" width="4" height="4" rx="0.5" fill="#B04A45" opacity="0.2"/>
  <rect x="26" y="24" width="4" height="4" rx="0.5" fill="#B04A45" opacity="0.15"/>
</svg>
