<svg xmlns="http://www.w3.org/2000/svg" viewBox="0 0 40 40">
  <!-- Tomato body -->
  <path d="M20,34 C11,34 7,27 7,22 C7,15 12,10 20,10 C28,10 33,15 33,22 C33,27 29,34 20,34 Z" fill="#B04A45" opacity="0.25"/>
  <path d="M20,34 C11,34 7,27 7,22 C7,15 12,10 20,10 C28,10 33,15 33,22 C33,27 29,34 20,34 Z" fill="none" stroke="#B04A45" stroke-width="2"/>
  <!-- Stem -->
  <path d="M20,10 C20,10 19,6 16,5" fill="none" stroke="#B04A45" stroke-width="2" stroke-linecap="round"/>
  <!-- Leaf -->
  <path d="M20,10 C20,10 23,5 27,7 C24,9 20,10 20,10 Z" fill="#B04A45" opacity="0.8"/>
  <!-- Clock face inside -->
  <circle cx="20" cy="22" r="7" fill="none" stroke="#B04A45" stroke-width="1.6" opacity="0.8"/>
  <line x1="20" y1="22" x2="20" y2="17" stroke="#B04A45" stroke-width="1.8" stroke-linecap="round"/>
  <line x1="20" y1="22" x2="24" y2="22" stroke="#B04A45" stroke-width="1.8" stroke-linecap="round"/>
  <circle cx="20" cy="22" r="1.5" fill="#B04A45"/>
</svg>
