<svg xmlns="http://www.w3.org/2000/svg" viewBox="0 0 40 40">
  <!-- Image icon (left) -->
  <rect x="4" y="11" width="14" height="12" rx="2" fill="#B04A45" opacity="0.25"/>
  <rect x="4" y="11" width="14" height="12" rx="2" fill="none" stroke="#B04A45" stroke-width="1.7"/>
  <circle cx="8" cy="15" r="1.5" fill="#B04A45" opacity="0.8"/>
  <path d="M4,20 L8,16 L12,19 L15,17 L18,20" fill="none" stroke="#B04A45" stroke-width="1.4" stroke-linecap="round" stroke-linejoin="round" opacity="0.8"/>
  <text x="11" y="27" font-family="system-ui,sans-serif" font-size="5.5" font-weight="700" fill="#B04A45" text-anchor="middle" opacity="0.8">JPG</text>
  <!-- Arrow -->
  <line x1="20" y1="19" x2="25" y2="19" stroke="#B04A45" stroke-width="2" stroke-linecap="round"/>
  <polyline points="23,16.5 26,19 23,21.5" fill="none" stroke="#B04A45" stroke-width="2" stroke-linecap="round" stroke-linejoin="round"/>
  <!-- PDF doc (right) -->
  <path d="M26,10 L34,10 L37,13 L37,30 L26,30 Z" fill="#B04A45" opacity="0.25"/>
  <path d="M26,10 L34,10 L37,13 L37,30 L26,30 Z" fill="none" stroke="#B04A45" stroke-width="1.7" stroke-linejoin="round"/>
  <path d="M34,10 L34,13 L37,13" fill="none" stroke="#B04A45" stroke-width="1.4" stroke-linejoin="round"/>
  <text x="31.5" y="24" font-family="system-ui,sans-serif" font-size="5.5" font-weight="800" fill="#B04A45" text-anchor="middle">PDF</text>
</svg>
