<svg xmlns="http://www.w3.org/2000/svg" viewBox="0 0 40 40">
  <defs>
    <linearGradient id="g" x1="0%" y1="0%" x2="100%" y2="100%">
      <stop offset="0%" stop-color="#DB2777"/>
      <stop offset="100%" stop-color="#A855F7"/>
    </linearGradient>
  </defs>
  <rect width="40" height="40" rx="10" fill="url(#g)"/>
  <!-- Cake base (2 layers) -->
  <rect x="9" y="26" width="22" height="7" rx="2.5" fill="white" opacity="0.9"/>
  <rect x="12" y="20" width="16" height="7" rx="2" fill="white" opacity="0.7"/>
  <!-- Icing drips on top layer -->
  <path d="M12,20 Q14,18 16,20 Q18,18 20,20 Q22,18 24,20 Q26,18 28,20" fill="none" stroke="white" stroke-width="1.4" stroke-linecap="round"/>
  <!-- 3 candles -->
  <rect x="15" y="13" width="2.5" height="7" rx="1.2" fill="white" opacity="0.8"/>
  <rect x="19" y="11" width="2.5" height="9" rx="1.2" fill="white" opacity="0.8"/>
  <rect x="23" y="13" width="2.5" height="7" rx="1.2" fill="white" opacity="0.8"/>
  <!-- Flames -->
  <ellipse cx="16.2" cy="12" rx="1.5" ry="2" fill="#FCD34D"/>
  <ellipse cx="20.2" cy="10" rx="1.5" ry="2" fill="#FCD34D"/>
  <ellipse cx="24.2" cy="12" rx="1.5" ry="2" fill="#FCD34D"/>
</svg>
