<svg xmlns="http://www.w3.org/2000/svg" viewBox="0 0 40 40">
  <defs>
    <linearGradient id="g" x1="0%" y1="0%" x2="100%" y2="100%">
      <stop offset="0%" stop-color="#2563EB"/>
      <stop offset="100%" stop-color="#60A5FA"/>
    </linearGradient>
  </defs>
  <rect width="40" height="40" rx="10" fill="url(#g)"/>
  <!-- Doc 1 (left, behind) -->
  <path d="M6,10 L15,10 L18,13 L18,30 L6,30 Z" fill="white" opacity="0.35"/>
  <path d="M6,10 L15,10 L18,13 L18,30 L6,30 Z" fill="none" stroke="white" stroke-width="1.5" stroke-linejoin="round" opacity="0.7"/>
  <!-- Doc 2 (right, behind) -->
  <path d="M22,10 L31,10 L34,13 L34,30 L22,30 Z" fill="white" opacity="0.35"/>
  <path d="M22,10 L31,10 L34,13 L34,30 L22,30 Z" fill="none" stroke="white" stroke-width="1.5" stroke-linejoin="round" opacity="0.7"/>
  <!-- Merge arrows pointing to center -->
  <line x1="18" y1="20" x2="14" y2="20" stroke="white" stroke-width="1.8" stroke-linecap="round"/>
  <line x1="22" y1="20" x2="26" y2="20" stroke="white" stroke-width="1.8" stroke-linecap="round"/>
  <polyline points="17,18 19,20 17,22" fill="none" stroke="white" stroke-width="1.8" stroke-linecap="round" stroke-linejoin="round"/>
  <polyline points="23,18 21,20 23,22" fill="none" stroke="white" stroke-width="1.8" stroke-linecap="round" stroke-linejoin="round"/>
  <!-- Result doc (center, front) -->
  <path d="M14,14 L23,14 L26,17 L26,33 L14,33 Z" fill="url(#g)"/>
  <path d="M14,14 L23,14 L26,17 L26,33 L14,33 Z" fill="none" stroke="white" stroke-width="1.8" stroke-linejoin="round"/>
  <path d="M23,14 L23,17 L26,17" fill="none" stroke="white" stroke-width="1.5" stroke-linejoin="round"/>
  <text x="20" y="28" font-family="system-ui,sans-serif" font-size="6" font-weight="800" fill="white" text-anchor="middle">PDF</text>
</svg>
