<svg xmlns="http://www.w3.org/2000/svg" viewBox="0 0 40 40">
  <!-- PDF doc (left) -->
  <path d="M4,10 L12,10 L15,13 L15,30 L4,30 Z" fill="#B04A45" opacity="0.25"/>
  <path d="M4,10 L12,10 L15,13 L15,30 L4,30 Z" fill="none" stroke="#B04A45" stroke-width="1.7" stroke-linejoin="round"/>
  <path d="M12,10 L12,13 L15,13" fill="none" stroke="#B04A45" stroke-width="1.4" stroke-linejoin="round"/>
  <text x="9.5" y="24" font-family="system-ui,sans-serif" font-size="5" font-weight="800" fill="#B04A45" text-anchor="middle">PDF</text>
  <!-- Arrow -->
  <line x1="17" y1="19" x2="22" y2="19" stroke="#B04A45" stroke-width="2" stroke-linecap="round"/>
  <polyline points="20,16.5 23,19 20,21.5" fill="none" stroke="#B04A45" stroke-width="2" stroke-linecap="round" stroke-linejoin="round"/>
  <!-- Image output (right) -->
  <rect x="24" y="11" width="14" height="12" rx="2" fill="#B04A45" opacity="0.25"/>
  <rect x="24" y="11" width="14" height="12" rx="2" fill="none" stroke="#B04A45" stroke-width="1.7"/>
  <circle cx="27.5" cy="15" r="1.5" fill="#B04A45" opacity="0.8"/>
  <path d="M24,20 L28,16.5 L31,19.5 L34,17.5 L38,20" fill="none" stroke="#B04A45" stroke-width="1.4" stroke-linecap="round" stroke-linejoin="round" opacity="0.8"/>
  <text x="31" y="27" font-family="system-ui,sans-serif" font-size="5.5" font-weight="700" fill="#B04A45" text-anchor="middle" opacity="0.8">JPG</text>
</svg>
