<svg xmlns="http://www.w3.org/2000/svg" viewBox="0 0 40 40">
  <defs>
    <linearGradient id="g" x1="0%" y1="0%" x2="100%" y2="100%">
      <stop offset="0%" stop-color="#EA580C"/>
      <stop offset="100%" stop-color="#FCA5A5"/>
    </linearGradient>
  </defs>
  <rect width="40" height="40" rx="10" fill="url(#g)"/>
  <!-- Outer flame -->
  <path d="M20,34 C11,34 8,27 10,20 C11,16 13,14 14,11 C15,14 16,15 17,14 C18,10 20,6 20,6 C20,6 24,11 24,16 C25,14 26,12 27,10 C29,15 32,20 30,27 C28,32 25,34 20,34 Z" fill="white" opacity="0.9"/>
  <!-- Inner flame -->
  <path d="M20,30 C16,30 14,26 15,22 C16,20 18,18 18,16 C19,18 20,20 21,19 C21,23 24,26 22,29 C21,30 20,30 20,30 Z" fill="#FCD34D" opacity="0.85"/>
</svg>
