<svg xmlns="http://www.w3.org/2000/svg" viewBox="0 0 40 40">
  <!-- Mouse body -->
  <path d="M20,8 Q27,8 27,18 L27,26 Q27,33 20,33 Q13,33 13,26 L13,18 Q13,8 20,8 Z" fill="#B04A45" opacity="0.2"/>
  <path d="M20,8 Q27,8 27,18 L27,26 Q27,33 20,33 Q13,33 13,26 L13,18 Q13,8 20,8 Z" fill="none" stroke="#B04A45" stroke-width="2"/>
  <!-- Left/right button divider -->
  <line x1="20" y1="8" x2="20" y2="19" stroke="#B04A45" stroke-width="1.6" opacity="0.7"/>
  <!-- Scroll wheel -->
  <rect x="18.5" y="20" width="3" height="6" rx="1.5" fill="#B04A45" opacity="0.85"/>
  <!-- Click highlight on left button -->
  <path d="M14,18 Q14,10 20,9 L20,19 L13,19 Q13,18.5 14,18 Z" fill="#B04A45" opacity="0.25"/>
</svg>
