<svg xmlns="http://www.w3.org/2000/svg" viewBox="0 0 40 40">
  <defs>
    <linearGradient id="g" x1="0%" y1="0%" x2="100%" y2="100%">
      <stop offset="0%" stop-color="#7F1D1D"/>
      <stop offset="100%" stop-color="#EF4444"/>
    </linearGradient>
  </defs>
  <rect width="40" height="40" rx="10" fill="url(#g)"/>
  <path d="M8,6 L20,6 L25,11 L25,34 L8,34 Z" fill="white" opacity="0.2"/>
  <path d="M8,6 L20,6 L25,11 L25,34 L8,34 Z" fill="none" stroke="white" stroke-width="1.8" stroke-linejoin="round"/>
  <path d="M20,6 L20,11 L25,11" fill="none" stroke="white" stroke-width="1.5" stroke-linejoin="round"/>
  <!-- Lock body -->
  <rect x="13" y="22" width="10" height="8" rx="2" fill="white" opacity="0.9"/>
  <!-- Lock shackle -->
  <path d="M15,22 L15,19 Q15,15 18,15 Q21,15 21,19 L21,22" fill="none" stroke="white" stroke-width="2" stroke-linecap="round"/>
  <!-- Keyhole -->
  <circle cx="18" cy="26" r="1.5" fill="#7F1D1D"/>
  <rect x="17.3" y="26" width="1.4" height="2.5" rx="0.5" fill="#7F1D1D"/>
</svg>
