<svg xmlns="http://www.w3.org/2000/svg" viewBox="0 0 40 40">
  <defs>
    <linearGradient id="g" x1="0%" y1="0%" x2="100%" y2="100%">
      <stop offset="0%" stop-color="#1E293B"/>
      <stop offset="100%" stop-color="#475569"/>
    </linearGradient>
  </defs>
  <rect width="40" height="40" rx="10" fill="url(#g)"/>
  <path d="M9,6 L21,6 L26,11 L26,34 L9,34 Z" fill="white" opacity="0.18"/>
  <path d="M9,6 L21,6 L26,11 L26,34 L9,34 Z" fill="none" stroke="white" stroke-width="1.8" stroke-linejoin="round"/>
  <path d="M21,6 L21,11 L26,11" fill="none" stroke="white" stroke-width="1.5" stroke-linejoin="round"/>
  <!-- Text lines -->
  <line x1="12" y1="16" x2="23" y2="16" stroke="white" stroke-width="1.3" stroke-linecap="round" opacity="0.5"/>
  <!-- Black redaction bars -->
  <rect x="11" y="19" width="14" height="3.5" rx="0.5" fill="white" opacity="0.9"/>
  <rect x="11" y="25" width="9" height="3.5" rx="0.5" fill="white" opacity="0.9"/>
  <!-- Eye-slash icon (privacy) on top-right -->
  <circle cx="31" cy="14" r="6" fill="white" opacity="0.15"/>
  <path d="M26,14 Q31,9 36,14 Q31,19 26,14 Z" fill="none" stroke="white" stroke-width="1.6" stroke-linejoin="round"/>
  <circle cx="31" cy="14" r="2" fill="white" opacity="0.8"/>
  <line x1="27" y1="10" x2="35" y2="18" stroke="white" stroke-width="1.8" stroke-linecap="round" opacity="0.9"/>
</svg>
